<svg width="50" height="50" viewBox="0 0 50 50" fill="none" xmlns="http://www.w3.org/2000/svg">
<g clip-path="url(#clip0_1_36)">
<path fill-rule="evenodd" clip-rule="evenodd" d="M24.925 0C18.3147 0.000828614 11.9754 2.62711 7.30128 7.30128C2.62711 11.9754 0.000828614 18.3147 0 24.925C0 35.9313 7.1875 45.2594 16.9719 48.625C18.1969 48.7781 18.6531 48.0125 18.6531 47.4V43.1188C11.775 44.65 10.2469 39.7562 10.2469 39.7562C9.175 36.85 7.49375 36.0844 7.49375 36.0844C5.2 34.5563 7.64375 34.5562 7.64375 34.5562C10.0906 34.7094 11.4688 37.1562 11.4688 37.1562C13.7625 40.9781 17.2781 39.9062 18.6562 39.2969C18.8062 37.6156 19.5719 36.5469 20.1844 35.9344C14.6781 35.3219 8.86875 33.1812 8.86875 23.5469C8.86875 20.7969 9.78438 18.6531 11.4688 16.8188C11.3125 16.3594 10.3969 13.7625 11.775 10.3969C11.775 10.3969 13.9156 9.78438 18.6531 12.9969C20.6406 12.3844 22.7844 12.2312 24.925 12.2312C27.0656 12.2312 29.2063 12.5375 31.1938 12.9969C35.9344 9.7875 38.075 10.3969 38.075 10.3969C39.45 13.7625 38.5312 16.3594 38.3781 16.9719C40.0622 18.8065 40.9908 21.2097 40.9781 23.7C40.9781 33.3344 35.1656 35.3219 29.6656 35.9344C30.5812 36.6969 31.3469 38.225 31.3469 40.5187V47.4C31.3469 48.0125 31.8031 48.775 33.0281 48.625C37.9844 46.9524 42.2896 43.7642 45.3352 39.5113C48.3807 35.2585 50.0126 30.1559 50 24.925C49.8469 11.1625 38.6875 0 24.925 0Z" fill="white"/>
</g>
<defs>
<clipPath id="clip0_1_36">
<rect width="50" height="50" fill="white"/>
</clipPath>
</defs>
</svg>
