<svg width="47" height="47" viewBox="0 0 47 47" fill="none" xmlns="http://www.w3.org/2000/svg">
<path d="M37.8312 33.4344H34.4266C33.1375 33.4344 32.7391 32.4094 30.4234 30.0625C28.4063 28.1094 27.5141 27.8469 27.0188 27.8469C26.3234 27.8469 26.125 28.0453 26.125 29.0047V32.0797C26.125 32.9078 25.8609 33.4031 23.6781 33.4031C19.275 33.1078 15.4906 30.7063 13.2937 27.2063L13.2609 27.1516C10.7109 23.9844 8.83125 20.1672 7.90156 15.9922L7.86719 15.8094C7.86719 15.3141 8.06563 14.85 9.025 14.85H12.4297C13.2891 14.85 13.6203 15.2469 13.9531 16.1719C15.6375 21.0344 18.45 25.3 19.6078 25.3C20.0375 25.3 20.2359 25.1016 20.2359 24.0109V18.9813C20.1031 16.6656 18.8797 16.4688 18.8797 15.6422C18.8938 15.2 19.2563 14.8469 19.7 14.8469C19.7141 14.8469 19.7266 14.8469 19.7406 14.8484H19.7391H25.0969C25.825 14.8484 26.0891 15.2453 26.0891 16.1047V22.8859C26.0891 23.6125 26.4203 23.8781 26.6188 23.8781C27.0484 23.8781 27.4141 23.6125 28.2062 22.8203C29.8531 20.8094 31.2609 18.5094 32.3344 16.0297L32.4063 15.8422C32.6328 15.275 33.1766 14.8813 33.8125 14.8813C33.8422 14.8813 33.8703 14.8828 33.9 14.8844H33.8953H37.3C38.325 14.8844 38.5578 15.4109 38.325 16.1406C36.9594 19.1484 35.425 21.7328 33.6469 24.1266L33.7281 24.0109C33.3656 24.6063 33.2328 24.8703 33.7281 25.5344C34.0906 26.0297 35.2828 27.0547 36.0766 27.9813C37.225 29.1172 38.1875 30.4391 38.9141 31.8984L38.9531 31.9844C39.2844 32.9406 38.7875 33.4375 37.8281 33.4375L37.8312 33.4344ZM30.6234 0H16.2375C3.10781 0 0 3.10781 0 16.2375V30.6234C0 43.7531 3.10781 46.8609 16.2375 46.8609H30.6234C43.7531 46.8609 46.8609 43.7531 46.8609 30.6234V16.2375C46.8609 3.10781 43.7188 0 30.6234 0Z" fill="white"/>
</svg>
